<mxfile host="app.diagrams.net" modified="2021-10-06T15:18:38.710Z" agent="5.0 (Windows NT 10.0; Win64; x64) AppleWebKit/537.36 (KHTML, like Gecko) Chrome/94.0.4606.61 Safari/537.36" etag="clrU27-XbYuJjsPUhMh7" version="15.4.1" type="github">
  <diagram id="l94GzRyqkOyVkh8g5JUR" name="第 1 页">
    <mxGraphModel dx="496" dy="322" grid="1" gridSize="10" guides="1" tooltips="1" connect="1" arrows="1" fold="1" page="1" pageScale="1" pageWidth="1169" pageHeight="827" math="0" shadow="0">
      <root>
        <mxCell id="0" />
        <mxCell id="1" parent="0" />
        <mxCell id="gy5plI8lJJhV6CStGt7Q-2" value="" style="rounded=0;whiteSpace=wrap;html=1;strokeColor=#0000FF;" vertex="1" parent="1">
          <mxGeometry x="180" y="360" width="130" height="250" as="geometry" />
        </mxCell>
        <mxCell id="gy5plI8lJJhV6CStGt7Q-3" value="&lt;pre style=&quot;background-color: rgb(43, 43, 43); color: rgb(169, 183, 198); font-family: consolas, monospace; font-size: 14px;&quot;&gt;&lt;font style=&quot;font-size: 14px;&quot;&gt;Student tom&lt;/font&gt;&lt;/pre&gt;" style="rounded=0;whiteSpace=wrap;html=1;strokeColor=#CC0066;fontSize=14;labelBorderColor=none;" vertex="1" parent="1">
          <mxGeometry x="190" y="394" width="110" height="40" as="geometry" />
        </mxCell>
        <mxCell id="gy5plI8lJJhV6CStGt7Q-4" value="&lt;pre style=&quot;background-color: rgb(43 , 43 , 43) ; color: rgb(169 , 183 , 198) ; font-family: &amp;#34;consolas&amp;#34; , monospace&quot;&gt;&lt;font style=&quot;font-size: 16px&quot;&gt;Student jack&lt;/font&gt;&lt;/pre&gt;" style="rounded=0;whiteSpace=wrap;html=1;strokeColor=#0000FF;" vertex="1" parent="1">
          <mxGeometry x="190" y="440" width="110" height="40" as="geometry" />
        </mxCell>
        <mxCell id="gy5plI8lJJhV6CStGt7Q-5" value="&lt;pre style=&quot;background-color: rgb(43 , 43 , 43) ; color: rgb(169 , 183 , 198) ; font-family: &amp;#34;consolas&amp;#34; , monospace&quot;&gt;&lt;font style=&quot;font-size: 16px&quot;&gt;Student tom&lt;/font&gt;&lt;/pre&gt;" style="rounded=0;whiteSpace=wrap;html=1;strokeColor=#0000FF;" vertex="1" parent="1">
          <mxGeometry x="190" y="517" width="110" height="40" as="geometry" />
        </mxCell>
        <mxCell id="gy5plI8lJJhV6CStGt7Q-6" value="&lt;pre style=&quot;background-color: rgb(43 , 43 , 43) ; color: rgb(169 , 183 , 198) ; font-family: &amp;#34;consolas&amp;#34; , monospace ; font-size: 12px&quot;&gt;&lt;pre style=&quot;font-family: &amp;#34;consolas&amp;#34; , monospace&quot;&gt;&lt;font style=&quot;font-size: 12px&quot;&gt;Student&lt;/font&gt;&lt;span&gt;.&lt;span style=&quot;color: rgb(152 , 118 , 170) ; font-style: italic&quot;&gt;country&lt;/span&gt;&lt;/span&gt;&lt;/pre&gt;&lt;/pre&gt;" style="rounded=0;whiteSpace=wrap;html=1;strokeColor=#CC0066;fontSize=14;labelBorderColor=none;" vertex="1" parent="1">
          <mxGeometry x="190" y="517" width="110" height="40" as="geometry" />
        </mxCell>
        <mxCell id="gy5plI8lJJhV6CStGt7Q-7" value="&lt;pre style=&quot;background-color: rgb(43, 43, 43); color: rgb(169, 183, 198); font-family: consolas, monospace; font-size: 14px;&quot;&gt;&lt;font style=&quot;font-size: 14px;&quot;&gt;Student jack&lt;/font&gt;&lt;/pre&gt;" style="rounded=0;whiteSpace=wrap;html=1;strokeColor=#CC0066;fontSize=14;labelBorderColor=none;" vertex="1" parent="1">
          <mxGeometry x="190" y="440" width="110" height="40" as="geometry" />
        </mxCell>
        <mxCell id="gy5plI8lJJhV6CStGt7Q-8" value="" style="rounded=0;whiteSpace=wrap;html=1;labelBorderColor=none;fontSize=12;strokeColor=#000099;" vertex="1" parent="1">
          <mxGeometry x="350" y="360" width="300" height="160" as="geometry" />
        </mxCell>
        <mxCell id="gy5plI8lJJhV6CStGt7Q-9" value="" style="rounded=0;whiteSpace=wrap;html=1;labelBorderColor=none;fontSize=12;strokeColor=#000099;" vertex="1" parent="1">
          <mxGeometry x="350" y="530" width="300" height="80" as="geometry" />
        </mxCell>
        <mxCell id="gy5plI8lJJhV6CStGt7Q-10" value="stack" style="text;html=1;strokeColor=none;fillColor=none;align=center;verticalAlign=middle;whiteSpace=wrap;rounded=0;labelBorderColor=none;fontSize=12;fontColor=#FF0000;" vertex="1" parent="1">
          <mxGeometry x="215" y="360" width="60" height="30" as="geometry" />
        </mxCell>
        <mxCell id="gy5plI8lJJhV6CStGt7Q-11" value="Heap" style="text;html=1;strokeColor=none;fillColor=none;align=center;verticalAlign=middle;whiteSpace=wrap;rounded=0;labelBorderColor=none;fontSize=12;fontColor=#FF0000;" vertex="1" parent="1">
          <mxGeometry x="590" y="360" width="60" height="30" as="geometry" />
        </mxCell>
        <mxCell id="gy5plI8lJJhV6CStGt7Q-12" value="方法区" style="text;html=1;strokeColor=none;fillColor=none;align=center;verticalAlign=middle;whiteSpace=wrap;rounded=0;labelBorderColor=none;fontSize=12;fontColor=#FF0000;" vertex="1" parent="1">
          <mxGeometry x="590" y="530" width="60" height="30" as="geometry" />
        </mxCell>
        <mxCell id="gy5plI8lJJhV6CStGt7Q-13" value="" style="rounded=1;whiteSpace=wrap;html=1;labelBorderColor=none;fontSize=12;fontColor=#FF0000;strokeColor=#990000;" vertex="1" parent="1">
          <mxGeometry x="360" y="540" width="180" height="60" as="geometry" />
        </mxCell>
        <mxCell id="gy5plI8lJJhV6CStGt7Q-14" value="静态区" style="text;html=1;strokeColor=none;fillColor=none;align=center;verticalAlign=middle;whiteSpace=wrap;rounded=0;labelBorderColor=none;fontSize=12;fontColor=#FF0000;" vertex="1" parent="1">
          <mxGeometry x="460" y="555" width="60" height="30" as="geometry" />
        </mxCell>
        <mxCell id="gy5plI8lJJhV6CStGt7Q-15" value="&lt;font color=&quot;#ff8000&quot;&gt;“China”&lt;/font&gt;" style="rounded=0;whiteSpace=wrap;html=1;labelBorderColor=none;fontSize=12;fontColor=#FF0000;strokeColor=#00CCCC;" vertex="1" parent="1">
          <mxGeometry x="380" y="550" width="75" height="40" as="geometry" />
        </mxCell>
        <mxCell id="gy5plI8lJJhV6CStGt7Q-17" value="&lt;pre style=&quot;background-color: rgb(43 , 43 , 43) ; color: rgb(169 , 183 , 198) ; font-family: &amp;#34;consolas&amp;#34; , monospace ; font-size: 11px&quot;&gt;&lt;span style=&quot;color: rgb(204 , 120 , 50) ; font-size: 11px&quot;&gt;new &lt;/span&gt;Student(&lt;span style=&quot;color: rgb(106 , 135 , 89) ; font-size: 11px&quot;&gt;&quot;jack&quot;&lt;/span&gt;)&lt;/pre&gt;" style="rounded=1;whiteSpace=wrap;html=1;labelBorderColor=none;fontSize=12;fontColor=#FF8000;strokeColor=#6600CC;" vertex="1" parent="1">
          <mxGeometry x="470" y="450" width="140" height="50" as="geometry" />
        </mxCell>
        <mxCell id="gy5plI8lJJhV6CStGt7Q-18" value="&lt;pre style=&quot;background-color: rgb(43 , 43 , 43) ; color: rgb(169 , 183 , 198) ; font-family: &amp;#34;consolas&amp;#34; , monospace ; font-size: 11px&quot;&gt;&lt;span style=&quot;color: rgb(204 , 120 , 50) ; font-size: 11px&quot;&gt;new &lt;/span&gt;Student(&lt;span style=&quot;color: rgb(106 , 135 , 89) ; font-size: 11px&quot;&gt;&quot;tom&quot;&lt;/span&gt;)&lt;/pre&gt;" style="rounded=1;whiteSpace=wrap;html=1;labelBorderColor=none;fontSize=12;fontColor=#FF8000;strokeColor=#6600CC;" vertex="1" parent="1">
          <mxGeometry x="370" y="384" width="140" height="50" as="geometry" />
        </mxCell>
        <mxCell id="gy5plI8lJJhV6CStGt7Q-19" value="" style="edgeStyle=orthogonalEdgeStyle;html=1;endArrow=block;elbow=vertical;startArrow=none;endFill=1;strokeColor=#006600;rounded=0;fontSize=11;fontColor=#FF8000;" edge="1" parent="1">
          <mxGeometry width="100" relative="1" as="geometry">
            <mxPoint x="290" y="413.71" as="sourcePoint" />
            <mxPoint x="380" y="413.71" as="targetPoint" />
          </mxGeometry>
        </mxCell>
        <mxCell id="gy5plI8lJJhV6CStGt7Q-20" value="" style="edgeStyle=orthogonalEdgeStyle;html=1;endArrow=block;elbow=vertical;startArrow=none;endFill=1;strokeColor=#006600;rounded=0;fontSize=11;fontColor=#FF8000;" edge="1" parent="1" target="gy5plI8lJJhV6CStGt7Q-17">
          <mxGeometry width="100" relative="1" as="geometry">
            <mxPoint x="300" y="459.71000000000004" as="sourcePoint" />
            <mxPoint x="390" y="459.71000000000004" as="targetPoint" />
          </mxGeometry>
        </mxCell>
        <mxCell id="gy5plI8lJJhV6CStGt7Q-21" value="" style="edgeStyle=orthogonalEdgeStyle;html=1;endArrow=block;elbow=vertical;startArrow=none;endFill=1;strokeColor=#006600;rounded=0;fontSize=11;fontColor=#FF8000;entryX=0;entryY=0.5;entryDx=0;entryDy=0;" edge="1" parent="1" target="gy5plI8lJJhV6CStGt7Q-15">
          <mxGeometry width="100" relative="1" as="geometry">
            <mxPoint x="300" y="540" as="sourcePoint" />
            <mxPoint x="390" y="540" as="targetPoint" />
          </mxGeometry>
        </mxCell>
      </root>
    </mxGraphModel>
  </diagram>
</mxfile>
